<svg width="20" height="24" viewBox="0 0 20 24" fill="none" xmlns="http://www.w3.org/2000/svg">
    <path
        d="M10 13.084C11.7949 13.084 13.25 11.6289 13.25 9.83398C13.25 8.03906 11.7949 6.58398 10 6.58398C8.20507 6.58398 6.75 8.03906 6.75 9.83398C6.75 11.6289 8.20507 13.084 10 13.084Z"
        stroke="#111111" stroke-width="2" stroke-linecap="round" stroke-linejoin="round" />
    <path
        d="M10.0002 1.16699C7.70162 1.16699 5.49722 2.08008 3.8719 3.7054C2.24659 5.33072 1.3335 7.53512 1.3335 9.83366C1.3335 11.8833 1.769 13.2245 2.9585 14.7087L10.0002 22.8337L17.0418 14.7087C18.2313 13.2245 18.6668 11.8833 18.6668 9.83366C18.6668 7.53512 17.7537 5.33072 16.1284 3.7054C14.5031 2.08008 12.2987 1.16699 10.0002 1.16699V1.16699Z"
        stroke="#111111" stroke-width="2" stroke-linecap="round" stroke-linejoin="round" />
</svg>
    